M48
;GenerationSoftware,Autodesk,EAGLE,8.6.3*%
;CreationDate,2018-02-24T20:23:53Z*%
FMAT,2
ICI,OFF
METRIC,TZ,000.000
T6C0.800
T5C1.000
T4C1.016
T3C2.000
T2C3.500
T1C5.100
%
G90
M71
T1
X20000Y20000
T2
X37000Y37000
X37000Y3000
X3000Y3000
X3000Y37000
T3
X24250Y14500
X15750Y14500
T4
X37100Y20810
X37100Y18270
X37100Y15730
X37100Y13190
X32870Y2900
X30330Y2900
X37100Y25230
X37100Y27770
T5
X37040Y32000
X34500Y32000
X31960Y32000
T6
X27610Y2710
X27610Y5250
X27610Y7790
X27610Y10330
X27610Y12870
X27610Y15410
X27610Y17950
X27610Y20490
X27610Y23030
X27610Y25570
X27610Y28110
X27610Y30650
X12370Y2710
X12370Y5250
X12370Y7790
X12370Y23030
X12370Y25570
X12370Y28110
X12370Y30650
X12370Y38270
X27610Y38270
X27610Y35730
X27610Y33190
X12370Y35730
X12370Y33190
X12370Y10330
X12370Y20490
X12370Y17950
X12370Y15410
X12370Y12870
M30