G04 EAGLE Gerber X2 export*
%TF.Part,Single*%
%TF.FileFunction,Other,Component side*%
%TF.FilePolarity,Positive*%
%TF.GenerationSoftware,Autodesk,EAGLE,8.6.3*%
%TF.CreationDate,2018-02-24T20:23:37Z*%
G75*
%MOMM*%
%FSLAX34Y34*%
%LPD*%
%AMOC8*
5,1,8,0,0,1.08239X$1,22.5*%
G01*
%ADD10C,1.524000*%
%ADD11R,1.879600X1.879600*%
%ADD12C,1.879600*%
%ADD13C,1.200000*%
%ADD14C,0.609600*%


D10*
X363380Y208100D02*
X378620Y208100D01*
X378620Y182700D02*
X363380Y182700D01*
X363380Y157300D02*
X378620Y157300D01*
X378620Y131900D02*
X363380Y131900D01*
D11*
X370400Y320000D03*
D12*
X345000Y320000D03*
X319600Y320000D03*
D10*
X328700Y36620D02*
X328700Y21380D01*
X303300Y21380D02*
X303300Y36620D01*
X363380Y252300D02*
X378620Y252300D01*
X378620Y277700D02*
X363380Y277700D01*
D13*
X282100Y27100D02*
X270100Y27100D01*
X270100Y52500D02*
X282100Y52500D01*
X282100Y77900D02*
X270100Y77900D01*
X270100Y103300D02*
X282100Y103300D01*
X282100Y128700D02*
X270100Y128700D01*
X270100Y154100D02*
X282100Y154100D01*
X282100Y179500D02*
X270100Y179500D01*
X270100Y204900D02*
X282100Y204900D01*
X282100Y230300D02*
X270100Y230300D01*
X270100Y255700D02*
X282100Y255700D01*
X282100Y281100D02*
X270100Y281100D01*
X270100Y306500D02*
X282100Y306500D01*
X129700Y27100D02*
X117700Y27100D01*
X117700Y52500D02*
X129700Y52500D01*
X129700Y77900D02*
X117700Y77900D01*
X117700Y230300D02*
X129700Y230300D01*
X129700Y255700D02*
X117700Y255700D01*
X117700Y281100D02*
X129700Y281100D01*
X129700Y306500D02*
X117700Y306500D01*
X117700Y382700D02*
X129700Y382700D01*
X270100Y382700D02*
X282100Y382700D01*
X282100Y357300D02*
X270100Y357300D01*
X270100Y331900D02*
X282100Y331900D01*
X129700Y357300D02*
X117700Y357300D01*
X117700Y331900D02*
X129700Y331900D01*
X129700Y103300D02*
X117700Y103300D01*
X117700Y204900D02*
X129700Y204900D01*
X129700Y179500D02*
X117700Y179500D01*
X117700Y154100D02*
X129700Y154100D01*
X129700Y128700D02*
X117700Y128700D01*
D14*
X276100Y230300D02*
X348800Y230300D01*
X371000Y208100D01*
M02*
