G04 EAGLE Gerber X2 export*
%TF.Part,Single*%
%TF.FileFunction,Other,Silk screen SOL*%
%TF.FilePolarity,Positive*%
%TF.GenerationSoftware,Autodesk,EAGLE,8.6.3*%
%TF.CreationDate,2018-02-24T20:23:37Z*%
G75*
%MOMM*%
%FSLAX34Y34*%
%LPD*%
%AMOC8*
5,1,8,0,0,1.08239X$1,22.5*%
G01*
%ADD10C,0.000000*%
%ADD11C,0.127000*%


D10*
X0Y0D02*
X400000Y0D01*
X400000Y400000D01*
X0Y400000D01*
X0Y0D01*
X352500Y370000D02*
X352505Y370429D01*
X352521Y370859D01*
X352547Y371287D01*
X352584Y371715D01*
X352632Y372142D01*
X352689Y372568D01*
X352758Y372992D01*
X352836Y373414D01*
X352925Y373834D01*
X353024Y374252D01*
X353134Y374667D01*
X353254Y375080D01*
X353383Y375489D01*
X353523Y375896D01*
X353673Y376298D01*
X353832Y376697D01*
X354001Y377092D01*
X354180Y377482D01*
X354369Y377868D01*
X354566Y378249D01*
X354773Y378626D01*
X354990Y378997D01*
X355215Y379362D01*
X355449Y379722D01*
X355692Y380077D01*
X355944Y380425D01*
X356204Y380767D01*
X356472Y381102D01*
X356749Y381431D01*
X357033Y381752D01*
X357326Y382067D01*
X357626Y382374D01*
X357933Y382674D01*
X358248Y382967D01*
X358569Y383251D01*
X358898Y383528D01*
X359233Y383796D01*
X359575Y384056D01*
X359923Y384308D01*
X360278Y384551D01*
X360638Y384785D01*
X361003Y385010D01*
X361374Y385227D01*
X361751Y385434D01*
X362132Y385631D01*
X362518Y385820D01*
X362908Y385999D01*
X363303Y386168D01*
X363702Y386327D01*
X364104Y386477D01*
X364511Y386617D01*
X364920Y386746D01*
X365333Y386866D01*
X365748Y386976D01*
X366166Y387075D01*
X366586Y387164D01*
X367008Y387242D01*
X367432Y387311D01*
X367858Y387368D01*
X368285Y387416D01*
X368713Y387453D01*
X369141Y387479D01*
X369571Y387495D01*
X370000Y387500D01*
X370429Y387495D01*
X370859Y387479D01*
X371287Y387453D01*
X371715Y387416D01*
X372142Y387368D01*
X372568Y387311D01*
X372992Y387242D01*
X373414Y387164D01*
X373834Y387075D01*
X374252Y386976D01*
X374667Y386866D01*
X375080Y386746D01*
X375489Y386617D01*
X375896Y386477D01*
X376298Y386327D01*
X376697Y386168D01*
X377092Y385999D01*
X377482Y385820D01*
X377868Y385631D01*
X378249Y385434D01*
X378626Y385227D01*
X378997Y385010D01*
X379362Y384785D01*
X379722Y384551D01*
X380077Y384308D01*
X380425Y384056D01*
X380767Y383796D01*
X381102Y383528D01*
X381431Y383251D01*
X381752Y382967D01*
X382067Y382674D01*
X382374Y382374D01*
X382674Y382067D01*
X382967Y381752D01*
X383251Y381431D01*
X383528Y381102D01*
X383796Y380767D01*
X384056Y380425D01*
X384308Y380077D01*
X384551Y379722D01*
X384785Y379362D01*
X385010Y378997D01*
X385227Y378626D01*
X385434Y378249D01*
X385631Y377868D01*
X385820Y377482D01*
X385999Y377092D01*
X386168Y376697D01*
X386327Y376298D01*
X386477Y375896D01*
X386617Y375489D01*
X386746Y375080D01*
X386866Y374667D01*
X386976Y374252D01*
X387075Y373834D01*
X387164Y373414D01*
X387242Y372992D01*
X387311Y372568D01*
X387368Y372142D01*
X387416Y371715D01*
X387453Y371287D01*
X387479Y370859D01*
X387495Y370429D01*
X387500Y370000D01*
X387495Y369571D01*
X387479Y369141D01*
X387453Y368713D01*
X387416Y368285D01*
X387368Y367858D01*
X387311Y367432D01*
X387242Y367008D01*
X387164Y366586D01*
X387075Y366166D01*
X386976Y365748D01*
X386866Y365333D01*
X386746Y364920D01*
X386617Y364511D01*
X386477Y364104D01*
X386327Y363702D01*
X386168Y363303D01*
X385999Y362908D01*
X385820Y362518D01*
X385631Y362132D01*
X385434Y361751D01*
X385227Y361374D01*
X385010Y361003D01*
X384785Y360638D01*
X384551Y360278D01*
X384308Y359923D01*
X384056Y359575D01*
X383796Y359233D01*
X383528Y358898D01*
X383251Y358569D01*
X382967Y358248D01*
X382674Y357933D01*
X382374Y357626D01*
X382067Y357326D01*
X381752Y357033D01*
X381431Y356749D01*
X381102Y356472D01*
X380767Y356204D01*
X380425Y355944D01*
X380077Y355692D01*
X379722Y355449D01*
X379362Y355215D01*
X378997Y354990D01*
X378626Y354773D01*
X378249Y354566D01*
X377868Y354369D01*
X377482Y354180D01*
X377092Y354001D01*
X376697Y353832D01*
X376298Y353673D01*
X375896Y353523D01*
X375489Y353383D01*
X375080Y353254D01*
X374667Y353134D01*
X374252Y353024D01*
X373834Y352925D01*
X373414Y352836D01*
X372992Y352758D01*
X372568Y352689D01*
X372142Y352632D01*
X371715Y352584D01*
X371287Y352547D01*
X370859Y352521D01*
X370429Y352505D01*
X370000Y352500D01*
X369571Y352505D01*
X369141Y352521D01*
X368713Y352547D01*
X368285Y352584D01*
X367858Y352632D01*
X367432Y352689D01*
X367008Y352758D01*
X366586Y352836D01*
X366166Y352925D01*
X365748Y353024D01*
X365333Y353134D01*
X364920Y353254D01*
X364511Y353383D01*
X364104Y353523D01*
X363702Y353673D01*
X363303Y353832D01*
X362908Y354001D01*
X362518Y354180D01*
X362132Y354369D01*
X361751Y354566D01*
X361374Y354773D01*
X361003Y354990D01*
X360638Y355215D01*
X360278Y355449D01*
X359923Y355692D01*
X359575Y355944D01*
X359233Y356204D01*
X358898Y356472D01*
X358569Y356749D01*
X358248Y357033D01*
X357933Y357326D01*
X357626Y357626D01*
X357326Y357933D01*
X357033Y358248D01*
X356749Y358569D01*
X356472Y358898D01*
X356204Y359233D01*
X355944Y359575D01*
X355692Y359923D01*
X355449Y360278D01*
X355215Y360638D01*
X354990Y361003D01*
X354773Y361374D01*
X354566Y361751D01*
X354369Y362132D01*
X354180Y362518D01*
X354001Y362908D01*
X353832Y363303D01*
X353673Y363702D01*
X353523Y364104D01*
X353383Y364511D01*
X353254Y364920D01*
X353134Y365333D01*
X353024Y365748D01*
X352925Y366166D01*
X352836Y366586D01*
X352758Y367008D01*
X352689Y367432D01*
X352632Y367858D01*
X352584Y368285D01*
X352547Y368713D01*
X352521Y369141D01*
X352505Y369571D01*
X352500Y370000D01*
X352500Y30000D02*
X352505Y30429D01*
X352521Y30859D01*
X352547Y31287D01*
X352584Y31715D01*
X352632Y32142D01*
X352689Y32568D01*
X352758Y32992D01*
X352836Y33414D01*
X352925Y33834D01*
X353024Y34252D01*
X353134Y34667D01*
X353254Y35080D01*
X353383Y35489D01*
X353523Y35896D01*
X353673Y36298D01*
X353832Y36697D01*
X354001Y37092D01*
X354180Y37482D01*
X354369Y37868D01*
X354566Y38249D01*
X354773Y38626D01*
X354990Y38997D01*
X355215Y39362D01*
X355449Y39722D01*
X355692Y40077D01*
X355944Y40425D01*
X356204Y40767D01*
X356472Y41102D01*
X356749Y41431D01*
X357033Y41752D01*
X357326Y42067D01*
X357626Y42374D01*
X357933Y42674D01*
X358248Y42967D01*
X358569Y43251D01*
X358898Y43528D01*
X359233Y43796D01*
X359575Y44056D01*
X359923Y44308D01*
X360278Y44551D01*
X360638Y44785D01*
X361003Y45010D01*
X361374Y45227D01*
X361751Y45434D01*
X362132Y45631D01*
X362518Y45820D01*
X362908Y45999D01*
X363303Y46168D01*
X363702Y46327D01*
X364104Y46477D01*
X364511Y46617D01*
X364920Y46746D01*
X365333Y46866D01*
X365748Y46976D01*
X366166Y47075D01*
X366586Y47164D01*
X367008Y47242D01*
X367432Y47311D01*
X367858Y47368D01*
X368285Y47416D01*
X368713Y47453D01*
X369141Y47479D01*
X369571Y47495D01*
X370000Y47500D01*
X370429Y47495D01*
X370859Y47479D01*
X371287Y47453D01*
X371715Y47416D01*
X372142Y47368D01*
X372568Y47311D01*
X372992Y47242D01*
X373414Y47164D01*
X373834Y47075D01*
X374252Y46976D01*
X374667Y46866D01*
X375080Y46746D01*
X375489Y46617D01*
X375896Y46477D01*
X376298Y46327D01*
X376697Y46168D01*
X377092Y45999D01*
X377482Y45820D01*
X377868Y45631D01*
X378249Y45434D01*
X378626Y45227D01*
X378997Y45010D01*
X379362Y44785D01*
X379722Y44551D01*
X380077Y44308D01*
X380425Y44056D01*
X380767Y43796D01*
X381102Y43528D01*
X381431Y43251D01*
X381752Y42967D01*
X382067Y42674D01*
X382374Y42374D01*
X382674Y42067D01*
X382967Y41752D01*
X383251Y41431D01*
X383528Y41102D01*
X383796Y40767D01*
X384056Y40425D01*
X384308Y40077D01*
X384551Y39722D01*
X384785Y39362D01*
X385010Y38997D01*
X385227Y38626D01*
X385434Y38249D01*
X385631Y37868D01*
X385820Y37482D01*
X385999Y37092D01*
X386168Y36697D01*
X386327Y36298D01*
X386477Y35896D01*
X386617Y35489D01*
X386746Y35080D01*
X386866Y34667D01*
X386976Y34252D01*
X387075Y33834D01*
X387164Y33414D01*
X387242Y32992D01*
X387311Y32568D01*
X387368Y32142D01*
X387416Y31715D01*
X387453Y31287D01*
X387479Y30859D01*
X387495Y30429D01*
X387500Y30000D01*
X387495Y29571D01*
X387479Y29141D01*
X387453Y28713D01*
X387416Y28285D01*
X387368Y27858D01*
X387311Y27432D01*
X387242Y27008D01*
X387164Y26586D01*
X387075Y26166D01*
X386976Y25748D01*
X386866Y25333D01*
X386746Y24920D01*
X386617Y24511D01*
X386477Y24104D01*
X386327Y23702D01*
X386168Y23303D01*
X385999Y22908D01*
X385820Y22518D01*
X385631Y22132D01*
X385434Y21751D01*
X385227Y21374D01*
X385010Y21003D01*
X384785Y20638D01*
X384551Y20278D01*
X384308Y19923D01*
X384056Y19575D01*
X383796Y19233D01*
X383528Y18898D01*
X383251Y18569D01*
X382967Y18248D01*
X382674Y17933D01*
X382374Y17626D01*
X382067Y17326D01*
X381752Y17033D01*
X381431Y16749D01*
X381102Y16472D01*
X380767Y16204D01*
X380425Y15944D01*
X380077Y15692D01*
X379722Y15449D01*
X379362Y15215D01*
X378997Y14990D01*
X378626Y14773D01*
X378249Y14566D01*
X377868Y14369D01*
X377482Y14180D01*
X377092Y14001D01*
X376697Y13832D01*
X376298Y13673D01*
X375896Y13523D01*
X375489Y13383D01*
X375080Y13254D01*
X374667Y13134D01*
X374252Y13024D01*
X373834Y12925D01*
X373414Y12836D01*
X372992Y12758D01*
X372568Y12689D01*
X372142Y12632D01*
X371715Y12584D01*
X371287Y12547D01*
X370859Y12521D01*
X370429Y12505D01*
X370000Y12500D01*
X369571Y12505D01*
X369141Y12521D01*
X368713Y12547D01*
X368285Y12584D01*
X367858Y12632D01*
X367432Y12689D01*
X367008Y12758D01*
X366586Y12836D01*
X366166Y12925D01*
X365748Y13024D01*
X365333Y13134D01*
X364920Y13254D01*
X364511Y13383D01*
X364104Y13523D01*
X363702Y13673D01*
X363303Y13832D01*
X362908Y14001D01*
X362518Y14180D01*
X362132Y14369D01*
X361751Y14566D01*
X361374Y14773D01*
X361003Y14990D01*
X360638Y15215D01*
X360278Y15449D01*
X359923Y15692D01*
X359575Y15944D01*
X359233Y16204D01*
X358898Y16472D01*
X358569Y16749D01*
X358248Y17033D01*
X357933Y17326D01*
X357626Y17626D01*
X357326Y17933D01*
X357033Y18248D01*
X356749Y18569D01*
X356472Y18898D01*
X356204Y19233D01*
X355944Y19575D01*
X355692Y19923D01*
X355449Y20278D01*
X355215Y20638D01*
X354990Y21003D01*
X354773Y21374D01*
X354566Y21751D01*
X354369Y22132D01*
X354180Y22518D01*
X354001Y22908D01*
X353832Y23303D01*
X353673Y23702D01*
X353523Y24104D01*
X353383Y24511D01*
X353254Y24920D01*
X353134Y25333D01*
X353024Y25748D01*
X352925Y26166D01*
X352836Y26586D01*
X352758Y27008D01*
X352689Y27432D01*
X352632Y27858D01*
X352584Y28285D01*
X352547Y28713D01*
X352521Y29141D01*
X352505Y29571D01*
X352500Y30000D01*
X12500Y30000D02*
X12505Y30429D01*
X12521Y30859D01*
X12547Y31287D01*
X12584Y31715D01*
X12632Y32142D01*
X12689Y32568D01*
X12758Y32992D01*
X12836Y33414D01*
X12925Y33834D01*
X13024Y34252D01*
X13134Y34667D01*
X13254Y35080D01*
X13383Y35489D01*
X13523Y35896D01*
X13673Y36298D01*
X13832Y36697D01*
X14001Y37092D01*
X14180Y37482D01*
X14369Y37868D01*
X14566Y38249D01*
X14773Y38626D01*
X14990Y38997D01*
X15215Y39362D01*
X15449Y39722D01*
X15692Y40077D01*
X15944Y40425D01*
X16204Y40767D01*
X16472Y41102D01*
X16749Y41431D01*
X17033Y41752D01*
X17326Y42067D01*
X17626Y42374D01*
X17933Y42674D01*
X18248Y42967D01*
X18569Y43251D01*
X18898Y43528D01*
X19233Y43796D01*
X19575Y44056D01*
X19923Y44308D01*
X20278Y44551D01*
X20638Y44785D01*
X21003Y45010D01*
X21374Y45227D01*
X21751Y45434D01*
X22132Y45631D01*
X22518Y45820D01*
X22908Y45999D01*
X23303Y46168D01*
X23702Y46327D01*
X24104Y46477D01*
X24511Y46617D01*
X24920Y46746D01*
X25333Y46866D01*
X25748Y46976D01*
X26166Y47075D01*
X26586Y47164D01*
X27008Y47242D01*
X27432Y47311D01*
X27858Y47368D01*
X28285Y47416D01*
X28713Y47453D01*
X29141Y47479D01*
X29571Y47495D01*
X30000Y47500D01*
X30429Y47495D01*
X30859Y47479D01*
X31287Y47453D01*
X31715Y47416D01*
X32142Y47368D01*
X32568Y47311D01*
X32992Y47242D01*
X33414Y47164D01*
X33834Y47075D01*
X34252Y46976D01*
X34667Y46866D01*
X35080Y46746D01*
X35489Y46617D01*
X35896Y46477D01*
X36298Y46327D01*
X36697Y46168D01*
X37092Y45999D01*
X37482Y45820D01*
X37868Y45631D01*
X38249Y45434D01*
X38626Y45227D01*
X38997Y45010D01*
X39362Y44785D01*
X39722Y44551D01*
X40077Y44308D01*
X40425Y44056D01*
X40767Y43796D01*
X41102Y43528D01*
X41431Y43251D01*
X41752Y42967D01*
X42067Y42674D01*
X42374Y42374D01*
X42674Y42067D01*
X42967Y41752D01*
X43251Y41431D01*
X43528Y41102D01*
X43796Y40767D01*
X44056Y40425D01*
X44308Y40077D01*
X44551Y39722D01*
X44785Y39362D01*
X45010Y38997D01*
X45227Y38626D01*
X45434Y38249D01*
X45631Y37868D01*
X45820Y37482D01*
X45999Y37092D01*
X46168Y36697D01*
X46327Y36298D01*
X46477Y35896D01*
X46617Y35489D01*
X46746Y35080D01*
X46866Y34667D01*
X46976Y34252D01*
X47075Y33834D01*
X47164Y33414D01*
X47242Y32992D01*
X47311Y32568D01*
X47368Y32142D01*
X47416Y31715D01*
X47453Y31287D01*
X47479Y30859D01*
X47495Y30429D01*
X47500Y30000D01*
X47495Y29571D01*
X47479Y29141D01*
X47453Y28713D01*
X47416Y28285D01*
X47368Y27858D01*
X47311Y27432D01*
X47242Y27008D01*
X47164Y26586D01*
X47075Y26166D01*
X46976Y25748D01*
X46866Y25333D01*
X46746Y24920D01*
X46617Y24511D01*
X46477Y24104D01*
X46327Y23702D01*
X46168Y23303D01*
X45999Y22908D01*
X45820Y22518D01*
X45631Y22132D01*
X45434Y21751D01*
X45227Y21374D01*
X45010Y21003D01*
X44785Y20638D01*
X44551Y20278D01*
X44308Y19923D01*
X44056Y19575D01*
X43796Y19233D01*
X43528Y18898D01*
X43251Y18569D01*
X42967Y18248D01*
X42674Y17933D01*
X42374Y17626D01*
X42067Y17326D01*
X41752Y17033D01*
X41431Y16749D01*
X41102Y16472D01*
X40767Y16204D01*
X40425Y15944D01*
X40077Y15692D01*
X39722Y15449D01*
X39362Y15215D01*
X38997Y14990D01*
X38626Y14773D01*
X38249Y14566D01*
X37868Y14369D01*
X37482Y14180D01*
X37092Y14001D01*
X36697Y13832D01*
X36298Y13673D01*
X35896Y13523D01*
X35489Y13383D01*
X35080Y13254D01*
X34667Y13134D01*
X34252Y13024D01*
X33834Y12925D01*
X33414Y12836D01*
X32992Y12758D01*
X32568Y12689D01*
X32142Y12632D01*
X31715Y12584D01*
X31287Y12547D01*
X30859Y12521D01*
X30429Y12505D01*
X30000Y12500D01*
X29571Y12505D01*
X29141Y12521D01*
X28713Y12547D01*
X28285Y12584D01*
X27858Y12632D01*
X27432Y12689D01*
X27008Y12758D01*
X26586Y12836D01*
X26166Y12925D01*
X25748Y13024D01*
X25333Y13134D01*
X24920Y13254D01*
X24511Y13383D01*
X24104Y13523D01*
X23702Y13673D01*
X23303Y13832D01*
X22908Y14001D01*
X22518Y14180D01*
X22132Y14369D01*
X21751Y14566D01*
X21374Y14773D01*
X21003Y14990D01*
X20638Y15215D01*
X20278Y15449D01*
X19923Y15692D01*
X19575Y15944D01*
X19233Y16204D01*
X18898Y16472D01*
X18569Y16749D01*
X18248Y17033D01*
X17933Y17326D01*
X17626Y17626D01*
X17326Y17933D01*
X17033Y18248D01*
X16749Y18569D01*
X16472Y18898D01*
X16204Y19233D01*
X15944Y19575D01*
X15692Y19923D01*
X15449Y20278D01*
X15215Y20638D01*
X14990Y21003D01*
X14773Y21374D01*
X14566Y21751D01*
X14369Y22132D01*
X14180Y22518D01*
X14001Y22908D01*
X13832Y23303D01*
X13673Y23702D01*
X13523Y24104D01*
X13383Y24511D01*
X13254Y24920D01*
X13134Y25333D01*
X13024Y25748D01*
X12925Y26166D01*
X12836Y26586D01*
X12758Y27008D01*
X12689Y27432D01*
X12632Y27858D01*
X12584Y28285D01*
X12547Y28713D01*
X12521Y29141D01*
X12505Y29571D01*
X12500Y30000D01*
X12500Y370000D02*
X12505Y370429D01*
X12521Y370859D01*
X12547Y371287D01*
X12584Y371715D01*
X12632Y372142D01*
X12689Y372568D01*
X12758Y372992D01*
X12836Y373414D01*
X12925Y373834D01*
X13024Y374252D01*
X13134Y374667D01*
X13254Y375080D01*
X13383Y375489D01*
X13523Y375896D01*
X13673Y376298D01*
X13832Y376697D01*
X14001Y377092D01*
X14180Y377482D01*
X14369Y377868D01*
X14566Y378249D01*
X14773Y378626D01*
X14990Y378997D01*
X15215Y379362D01*
X15449Y379722D01*
X15692Y380077D01*
X15944Y380425D01*
X16204Y380767D01*
X16472Y381102D01*
X16749Y381431D01*
X17033Y381752D01*
X17326Y382067D01*
X17626Y382374D01*
X17933Y382674D01*
X18248Y382967D01*
X18569Y383251D01*
X18898Y383528D01*
X19233Y383796D01*
X19575Y384056D01*
X19923Y384308D01*
X20278Y384551D01*
X20638Y384785D01*
X21003Y385010D01*
X21374Y385227D01*
X21751Y385434D01*
X22132Y385631D01*
X22518Y385820D01*
X22908Y385999D01*
X23303Y386168D01*
X23702Y386327D01*
X24104Y386477D01*
X24511Y386617D01*
X24920Y386746D01*
X25333Y386866D01*
X25748Y386976D01*
X26166Y387075D01*
X26586Y387164D01*
X27008Y387242D01*
X27432Y387311D01*
X27858Y387368D01*
X28285Y387416D01*
X28713Y387453D01*
X29141Y387479D01*
X29571Y387495D01*
X30000Y387500D01*
X30429Y387495D01*
X30859Y387479D01*
X31287Y387453D01*
X31715Y387416D01*
X32142Y387368D01*
X32568Y387311D01*
X32992Y387242D01*
X33414Y387164D01*
X33834Y387075D01*
X34252Y386976D01*
X34667Y386866D01*
X35080Y386746D01*
X35489Y386617D01*
X35896Y386477D01*
X36298Y386327D01*
X36697Y386168D01*
X37092Y385999D01*
X37482Y385820D01*
X37868Y385631D01*
X38249Y385434D01*
X38626Y385227D01*
X38997Y385010D01*
X39362Y384785D01*
X39722Y384551D01*
X40077Y384308D01*
X40425Y384056D01*
X40767Y383796D01*
X41102Y383528D01*
X41431Y383251D01*
X41752Y382967D01*
X42067Y382674D01*
X42374Y382374D01*
X42674Y382067D01*
X42967Y381752D01*
X43251Y381431D01*
X43528Y381102D01*
X43796Y380767D01*
X44056Y380425D01*
X44308Y380077D01*
X44551Y379722D01*
X44785Y379362D01*
X45010Y378997D01*
X45227Y378626D01*
X45434Y378249D01*
X45631Y377868D01*
X45820Y377482D01*
X45999Y377092D01*
X46168Y376697D01*
X46327Y376298D01*
X46477Y375896D01*
X46617Y375489D01*
X46746Y375080D01*
X46866Y374667D01*
X46976Y374252D01*
X47075Y373834D01*
X47164Y373414D01*
X47242Y372992D01*
X47311Y372568D01*
X47368Y372142D01*
X47416Y371715D01*
X47453Y371287D01*
X47479Y370859D01*
X47495Y370429D01*
X47500Y370000D01*
X47495Y369571D01*
X47479Y369141D01*
X47453Y368713D01*
X47416Y368285D01*
X47368Y367858D01*
X47311Y367432D01*
X47242Y367008D01*
X47164Y366586D01*
X47075Y366166D01*
X46976Y365748D01*
X46866Y365333D01*
X46746Y364920D01*
X46617Y364511D01*
X46477Y364104D01*
X46327Y363702D01*
X46168Y363303D01*
X45999Y362908D01*
X45820Y362518D01*
X45631Y362132D01*
X45434Y361751D01*
X45227Y361374D01*
X45010Y361003D01*
X44785Y360638D01*
X44551Y360278D01*
X44308Y359923D01*
X44056Y359575D01*
X43796Y359233D01*
X43528Y358898D01*
X43251Y358569D01*
X42967Y358248D01*
X42674Y357933D01*
X42374Y357626D01*
X42067Y357326D01*
X41752Y357033D01*
X41431Y356749D01*
X41102Y356472D01*
X40767Y356204D01*
X40425Y355944D01*
X40077Y355692D01*
X39722Y355449D01*
X39362Y355215D01*
X38997Y354990D01*
X38626Y354773D01*
X38249Y354566D01*
X37868Y354369D01*
X37482Y354180D01*
X37092Y354001D01*
X36697Y353832D01*
X36298Y353673D01*
X35896Y353523D01*
X35489Y353383D01*
X35080Y353254D01*
X34667Y353134D01*
X34252Y353024D01*
X33834Y352925D01*
X33414Y352836D01*
X32992Y352758D01*
X32568Y352689D01*
X32142Y352632D01*
X31715Y352584D01*
X31287Y352547D01*
X30859Y352521D01*
X30429Y352505D01*
X30000Y352500D01*
X29571Y352505D01*
X29141Y352521D01*
X28713Y352547D01*
X28285Y352584D01*
X27858Y352632D01*
X27432Y352689D01*
X27008Y352758D01*
X26586Y352836D01*
X26166Y352925D01*
X25748Y353024D01*
X25333Y353134D01*
X24920Y353254D01*
X24511Y353383D01*
X24104Y353523D01*
X23702Y353673D01*
X23303Y353832D01*
X22908Y354001D01*
X22518Y354180D01*
X22132Y354369D01*
X21751Y354566D01*
X21374Y354773D01*
X21003Y354990D01*
X20638Y355215D01*
X20278Y355449D01*
X19923Y355692D01*
X19575Y355944D01*
X19233Y356204D01*
X18898Y356472D01*
X18569Y356749D01*
X18248Y357033D01*
X17933Y357326D01*
X17626Y357626D01*
X17326Y357933D01*
X17033Y358248D01*
X16749Y358569D01*
X16472Y358898D01*
X16204Y359233D01*
X15944Y359575D01*
X15692Y359923D01*
X15449Y360278D01*
X15215Y360638D01*
X14990Y361003D01*
X14773Y361374D01*
X14566Y361751D01*
X14369Y362132D01*
X14180Y362518D01*
X14001Y362908D01*
X13832Y363303D01*
X13673Y363702D01*
X13523Y364104D01*
X13383Y364511D01*
X13254Y364920D01*
X13134Y365333D01*
X13024Y365748D01*
X12925Y366166D01*
X12836Y366586D01*
X12758Y367008D01*
X12689Y367432D01*
X12632Y367858D01*
X12584Y368285D01*
X12547Y368713D01*
X12521Y369141D01*
X12505Y369571D01*
X12500Y370000D01*
X174500Y200000D02*
X174508Y200626D01*
X174531Y201251D01*
X174569Y201876D01*
X174623Y202499D01*
X174692Y203121D01*
X174776Y203742D01*
X174875Y204360D01*
X174990Y204975D01*
X175120Y205587D01*
X175264Y206196D01*
X175424Y206801D01*
X175598Y207402D01*
X175787Y207999D01*
X175991Y208591D01*
X176209Y209177D01*
X176441Y209758D01*
X176688Y210334D01*
X176948Y210903D01*
X177223Y211465D01*
X177511Y212021D01*
X177813Y212569D01*
X178128Y213110D01*
X178456Y213642D01*
X178798Y214167D01*
X179152Y214683D01*
X179518Y215190D01*
X179897Y215688D01*
X180288Y216177D01*
X180691Y216656D01*
X181106Y217125D01*
X181532Y217583D01*
X181969Y218031D01*
X182417Y218468D01*
X182875Y218894D01*
X183344Y219309D01*
X183823Y219712D01*
X184312Y220103D01*
X184810Y220482D01*
X185317Y220848D01*
X185833Y221202D01*
X186358Y221544D01*
X186890Y221872D01*
X187431Y222187D01*
X187979Y222489D01*
X188535Y222777D01*
X189097Y223052D01*
X189666Y223312D01*
X190242Y223559D01*
X190823Y223791D01*
X191409Y224009D01*
X192001Y224213D01*
X192598Y224402D01*
X193199Y224576D01*
X193804Y224736D01*
X194413Y224880D01*
X195025Y225010D01*
X195640Y225125D01*
X196258Y225224D01*
X196879Y225308D01*
X197501Y225377D01*
X198124Y225431D01*
X198749Y225469D01*
X199374Y225492D01*
X200000Y225500D01*
X200626Y225492D01*
X201251Y225469D01*
X201876Y225431D01*
X202499Y225377D01*
X203121Y225308D01*
X203742Y225224D01*
X204360Y225125D01*
X204975Y225010D01*
X205587Y224880D01*
X206196Y224736D01*
X206801Y224576D01*
X207402Y224402D01*
X207999Y224213D01*
X208591Y224009D01*
X209177Y223791D01*
X209758Y223559D01*
X210334Y223312D01*
X210903Y223052D01*
X211465Y222777D01*
X212021Y222489D01*
X212569Y222187D01*
X213110Y221872D01*
X213642Y221544D01*
X214167Y221202D01*
X214683Y220848D01*
X215190Y220482D01*
X215688Y220103D01*
X216177Y219712D01*
X216656Y219309D01*
X217125Y218894D01*
X217583Y218468D01*
X218031Y218031D01*
X218468Y217583D01*
X218894Y217125D01*
X219309Y216656D01*
X219712Y216177D01*
X220103Y215688D01*
X220482Y215190D01*
X220848Y214683D01*
X221202Y214167D01*
X221544Y213642D01*
X221872Y213110D01*
X222187Y212569D01*
X222489Y212021D01*
X222777Y211465D01*
X223052Y210903D01*
X223312Y210334D01*
X223559Y209758D01*
X223791Y209177D01*
X224009Y208591D01*
X224213Y207999D01*
X224402Y207402D01*
X224576Y206801D01*
X224736Y206196D01*
X224880Y205587D01*
X225010Y204975D01*
X225125Y204360D01*
X225224Y203742D01*
X225308Y203121D01*
X225377Y202499D01*
X225431Y201876D01*
X225469Y201251D01*
X225492Y200626D01*
X225500Y200000D01*
X225492Y199374D01*
X225469Y198749D01*
X225431Y198124D01*
X225377Y197501D01*
X225308Y196879D01*
X225224Y196258D01*
X225125Y195640D01*
X225010Y195025D01*
X224880Y194413D01*
X224736Y193804D01*
X224576Y193199D01*
X224402Y192598D01*
X224213Y192001D01*
X224009Y191409D01*
X223791Y190823D01*
X223559Y190242D01*
X223312Y189666D01*
X223052Y189097D01*
X222777Y188535D01*
X222489Y187979D01*
X222187Y187431D01*
X221872Y186890D01*
X221544Y186358D01*
X221202Y185833D01*
X220848Y185317D01*
X220482Y184810D01*
X220103Y184312D01*
X219712Y183823D01*
X219309Y183344D01*
X218894Y182875D01*
X218468Y182417D01*
X218031Y181969D01*
X217583Y181532D01*
X217125Y181106D01*
X216656Y180691D01*
X216177Y180288D01*
X215688Y179897D01*
X215190Y179518D01*
X214683Y179152D01*
X214167Y178798D01*
X213642Y178456D01*
X213110Y178128D01*
X212569Y177813D01*
X212021Y177511D01*
X211465Y177223D01*
X210903Y176948D01*
X210334Y176688D01*
X209758Y176441D01*
X209177Y176209D01*
X208591Y175991D01*
X207999Y175787D01*
X207402Y175598D01*
X206801Y175424D01*
X206196Y175264D01*
X205587Y175120D01*
X204975Y174990D01*
X204360Y174875D01*
X203742Y174776D01*
X203121Y174692D01*
X202499Y174623D01*
X201876Y174569D01*
X201251Y174531D01*
X200626Y174508D01*
X200000Y174500D01*
X199374Y174508D01*
X198749Y174531D01*
X198124Y174569D01*
X197501Y174623D01*
X196879Y174692D01*
X196258Y174776D01*
X195640Y174875D01*
X195025Y174990D01*
X194413Y175120D01*
X193804Y175264D01*
X193199Y175424D01*
X192598Y175598D01*
X192001Y175787D01*
X191409Y175991D01*
X190823Y176209D01*
X190242Y176441D01*
X189666Y176688D01*
X189097Y176948D01*
X188535Y177223D01*
X187979Y177511D01*
X187431Y177813D01*
X186890Y178128D01*
X186358Y178456D01*
X185833Y178798D01*
X185317Y179152D01*
X184810Y179518D01*
X184312Y179897D01*
X183823Y180288D01*
X183344Y180691D01*
X182875Y181106D01*
X182417Y181532D01*
X181969Y181969D01*
X181532Y182417D01*
X181106Y182875D01*
X180691Y183344D01*
X180288Y183823D01*
X179897Y184312D01*
X179518Y184810D01*
X179152Y185317D01*
X178798Y185833D01*
X178456Y186358D01*
X178128Y186890D01*
X177813Y187431D01*
X177511Y187979D01*
X177223Y188535D01*
X176948Y189097D01*
X176688Y189666D01*
X176441Y190242D01*
X176209Y190823D01*
X175991Y191409D01*
X175787Y192001D01*
X175598Y192598D01*
X175424Y193199D01*
X175264Y193804D01*
X175120Y194413D01*
X174990Y195025D01*
X174875Y195640D01*
X174776Y196258D01*
X174692Y196879D01*
X174623Y197501D01*
X174569Y198124D01*
X174531Y198749D01*
X174508Y199374D01*
X174500Y200000D01*
D11*
X145000Y134000D02*
X255000Y134000D01*
X145000Y134000D02*
X145000Y223500D01*
X180000Y256000D01*
X220000Y256000D01*
X255000Y223500D01*
X255000Y134000D01*
D10*
X232500Y145000D02*
X232503Y145245D01*
X232512Y145491D01*
X232527Y145736D01*
X232548Y145980D01*
X232575Y146224D01*
X232608Y146467D01*
X232647Y146710D01*
X232692Y146951D01*
X232743Y147191D01*
X232800Y147430D01*
X232862Y147667D01*
X232931Y147903D01*
X233005Y148137D01*
X233085Y148369D01*
X233170Y148599D01*
X233261Y148827D01*
X233358Y149052D01*
X233460Y149276D01*
X233568Y149496D01*
X233681Y149714D01*
X233799Y149929D01*
X233923Y150141D01*
X234051Y150350D01*
X234185Y150556D01*
X234324Y150758D01*
X234468Y150957D01*
X234617Y151152D01*
X234770Y151344D01*
X234928Y151532D01*
X235090Y151716D01*
X235258Y151895D01*
X235429Y152071D01*
X235605Y152242D01*
X235784Y152410D01*
X235968Y152572D01*
X236156Y152730D01*
X236348Y152883D01*
X236543Y153032D01*
X236742Y153176D01*
X236944Y153315D01*
X237150Y153449D01*
X237359Y153577D01*
X237571Y153701D01*
X237786Y153819D01*
X238004Y153932D01*
X238224Y154040D01*
X238448Y154142D01*
X238673Y154239D01*
X238901Y154330D01*
X239131Y154415D01*
X239363Y154495D01*
X239597Y154569D01*
X239833Y154638D01*
X240070Y154700D01*
X240309Y154757D01*
X240549Y154808D01*
X240790Y154853D01*
X241033Y154892D01*
X241276Y154925D01*
X241520Y154952D01*
X241764Y154973D01*
X242009Y154988D01*
X242255Y154997D01*
X242500Y155000D01*
X242745Y154997D01*
X242991Y154988D01*
X243236Y154973D01*
X243480Y154952D01*
X243724Y154925D01*
X243967Y154892D01*
X244210Y154853D01*
X244451Y154808D01*
X244691Y154757D01*
X244930Y154700D01*
X245167Y154638D01*
X245403Y154569D01*
X245637Y154495D01*
X245869Y154415D01*
X246099Y154330D01*
X246327Y154239D01*
X246552Y154142D01*
X246776Y154040D01*
X246996Y153932D01*
X247214Y153819D01*
X247429Y153701D01*
X247641Y153577D01*
X247850Y153449D01*
X248056Y153315D01*
X248258Y153176D01*
X248457Y153032D01*
X248652Y152883D01*
X248844Y152730D01*
X249032Y152572D01*
X249216Y152410D01*
X249395Y152242D01*
X249571Y152071D01*
X249742Y151895D01*
X249910Y151716D01*
X250072Y151532D01*
X250230Y151344D01*
X250383Y151152D01*
X250532Y150957D01*
X250676Y150758D01*
X250815Y150556D01*
X250949Y150350D01*
X251077Y150141D01*
X251201Y149929D01*
X251319Y149714D01*
X251432Y149496D01*
X251540Y149276D01*
X251642Y149052D01*
X251739Y148827D01*
X251830Y148599D01*
X251915Y148369D01*
X251995Y148137D01*
X252069Y147903D01*
X252138Y147667D01*
X252200Y147430D01*
X252257Y147191D01*
X252308Y146951D01*
X252353Y146710D01*
X252392Y146467D01*
X252425Y146224D01*
X252452Y145980D01*
X252473Y145736D01*
X252488Y145491D01*
X252497Y145245D01*
X252500Y145000D01*
X252497Y144755D01*
X252488Y144509D01*
X252473Y144264D01*
X252452Y144020D01*
X252425Y143776D01*
X252392Y143533D01*
X252353Y143290D01*
X252308Y143049D01*
X252257Y142809D01*
X252200Y142570D01*
X252138Y142333D01*
X252069Y142097D01*
X251995Y141863D01*
X251915Y141631D01*
X251830Y141401D01*
X251739Y141173D01*
X251642Y140948D01*
X251540Y140724D01*
X251432Y140504D01*
X251319Y140286D01*
X251201Y140071D01*
X251077Y139859D01*
X250949Y139650D01*
X250815Y139444D01*
X250676Y139242D01*
X250532Y139043D01*
X250383Y138848D01*
X250230Y138656D01*
X250072Y138468D01*
X249910Y138284D01*
X249742Y138105D01*
X249571Y137929D01*
X249395Y137758D01*
X249216Y137590D01*
X249032Y137428D01*
X248844Y137270D01*
X248652Y137117D01*
X248457Y136968D01*
X248258Y136824D01*
X248056Y136685D01*
X247850Y136551D01*
X247641Y136423D01*
X247429Y136299D01*
X247214Y136181D01*
X246996Y136068D01*
X246776Y135960D01*
X246552Y135858D01*
X246327Y135761D01*
X246099Y135670D01*
X245869Y135585D01*
X245637Y135505D01*
X245403Y135431D01*
X245167Y135362D01*
X244930Y135300D01*
X244691Y135243D01*
X244451Y135192D01*
X244210Y135147D01*
X243967Y135108D01*
X243724Y135075D01*
X243480Y135048D01*
X243236Y135027D01*
X242991Y135012D01*
X242745Y135003D01*
X242500Y135000D01*
X242255Y135003D01*
X242009Y135012D01*
X241764Y135027D01*
X241520Y135048D01*
X241276Y135075D01*
X241033Y135108D01*
X240790Y135147D01*
X240549Y135192D01*
X240309Y135243D01*
X240070Y135300D01*
X239833Y135362D01*
X239597Y135431D01*
X239363Y135505D01*
X239131Y135585D01*
X238901Y135670D01*
X238673Y135761D01*
X238448Y135858D01*
X238224Y135960D01*
X238004Y136068D01*
X237786Y136181D01*
X237571Y136299D01*
X237359Y136423D01*
X237150Y136551D01*
X236944Y136685D01*
X236742Y136824D01*
X236543Y136968D01*
X236348Y137117D01*
X236156Y137270D01*
X235968Y137428D01*
X235784Y137590D01*
X235605Y137758D01*
X235429Y137929D01*
X235258Y138105D01*
X235090Y138284D01*
X234928Y138468D01*
X234770Y138656D01*
X234617Y138848D01*
X234468Y139043D01*
X234324Y139242D01*
X234185Y139444D01*
X234051Y139650D01*
X233923Y139859D01*
X233799Y140071D01*
X233681Y140286D01*
X233568Y140504D01*
X233460Y140724D01*
X233358Y140948D01*
X233261Y141173D01*
X233170Y141401D01*
X233085Y141631D01*
X233005Y141863D01*
X232931Y142097D01*
X232862Y142333D01*
X232800Y142570D01*
X232743Y142809D01*
X232692Y143049D01*
X232647Y143290D01*
X232608Y143533D01*
X232575Y143776D01*
X232548Y144020D01*
X232527Y144264D01*
X232512Y144509D01*
X232503Y144755D01*
X232500Y145000D01*
X147500Y145000D02*
X147503Y145245D01*
X147512Y145491D01*
X147527Y145736D01*
X147548Y145980D01*
X147575Y146224D01*
X147608Y146467D01*
X147647Y146710D01*
X147692Y146951D01*
X147743Y147191D01*
X147800Y147430D01*
X147862Y147667D01*
X147931Y147903D01*
X148005Y148137D01*
X148085Y148369D01*
X148170Y148599D01*
X148261Y148827D01*
X148358Y149052D01*
X148460Y149276D01*
X148568Y149496D01*
X148681Y149714D01*
X148799Y149929D01*
X148923Y150141D01*
X149051Y150350D01*
X149185Y150556D01*
X149324Y150758D01*
X149468Y150957D01*
X149617Y151152D01*
X149770Y151344D01*
X149928Y151532D01*
X150090Y151716D01*
X150258Y151895D01*
X150429Y152071D01*
X150605Y152242D01*
X150784Y152410D01*
X150968Y152572D01*
X151156Y152730D01*
X151348Y152883D01*
X151543Y153032D01*
X151742Y153176D01*
X151944Y153315D01*
X152150Y153449D01*
X152359Y153577D01*
X152571Y153701D01*
X152786Y153819D01*
X153004Y153932D01*
X153224Y154040D01*
X153448Y154142D01*
X153673Y154239D01*
X153901Y154330D01*
X154131Y154415D01*
X154363Y154495D01*
X154597Y154569D01*
X154833Y154638D01*
X155070Y154700D01*
X155309Y154757D01*
X155549Y154808D01*
X155790Y154853D01*
X156033Y154892D01*
X156276Y154925D01*
X156520Y154952D01*
X156764Y154973D01*
X157009Y154988D01*
X157255Y154997D01*
X157500Y155000D01*
X157745Y154997D01*
X157991Y154988D01*
X158236Y154973D01*
X158480Y154952D01*
X158724Y154925D01*
X158967Y154892D01*
X159210Y154853D01*
X159451Y154808D01*
X159691Y154757D01*
X159930Y154700D01*
X160167Y154638D01*
X160403Y154569D01*
X160637Y154495D01*
X160869Y154415D01*
X161099Y154330D01*
X161327Y154239D01*
X161552Y154142D01*
X161776Y154040D01*
X161996Y153932D01*
X162214Y153819D01*
X162429Y153701D01*
X162641Y153577D01*
X162850Y153449D01*
X163056Y153315D01*
X163258Y153176D01*
X163457Y153032D01*
X163652Y152883D01*
X163844Y152730D01*
X164032Y152572D01*
X164216Y152410D01*
X164395Y152242D01*
X164571Y152071D01*
X164742Y151895D01*
X164910Y151716D01*
X165072Y151532D01*
X165230Y151344D01*
X165383Y151152D01*
X165532Y150957D01*
X165676Y150758D01*
X165815Y150556D01*
X165949Y150350D01*
X166077Y150141D01*
X166201Y149929D01*
X166319Y149714D01*
X166432Y149496D01*
X166540Y149276D01*
X166642Y149052D01*
X166739Y148827D01*
X166830Y148599D01*
X166915Y148369D01*
X166995Y148137D01*
X167069Y147903D01*
X167138Y147667D01*
X167200Y147430D01*
X167257Y147191D01*
X167308Y146951D01*
X167353Y146710D01*
X167392Y146467D01*
X167425Y146224D01*
X167452Y145980D01*
X167473Y145736D01*
X167488Y145491D01*
X167497Y145245D01*
X167500Y145000D01*
X167497Y144755D01*
X167488Y144509D01*
X167473Y144264D01*
X167452Y144020D01*
X167425Y143776D01*
X167392Y143533D01*
X167353Y143290D01*
X167308Y143049D01*
X167257Y142809D01*
X167200Y142570D01*
X167138Y142333D01*
X167069Y142097D01*
X166995Y141863D01*
X166915Y141631D01*
X166830Y141401D01*
X166739Y141173D01*
X166642Y140948D01*
X166540Y140724D01*
X166432Y140504D01*
X166319Y140286D01*
X166201Y140071D01*
X166077Y139859D01*
X165949Y139650D01*
X165815Y139444D01*
X165676Y139242D01*
X165532Y139043D01*
X165383Y138848D01*
X165230Y138656D01*
X165072Y138468D01*
X164910Y138284D01*
X164742Y138105D01*
X164571Y137929D01*
X164395Y137758D01*
X164216Y137590D01*
X164032Y137428D01*
X163844Y137270D01*
X163652Y137117D01*
X163457Y136968D01*
X163258Y136824D01*
X163056Y136685D01*
X162850Y136551D01*
X162641Y136423D01*
X162429Y136299D01*
X162214Y136181D01*
X161996Y136068D01*
X161776Y135960D01*
X161552Y135858D01*
X161327Y135761D01*
X161099Y135670D01*
X160869Y135585D01*
X160637Y135505D01*
X160403Y135431D01*
X160167Y135362D01*
X159930Y135300D01*
X159691Y135243D01*
X159451Y135192D01*
X159210Y135147D01*
X158967Y135108D01*
X158724Y135075D01*
X158480Y135048D01*
X158236Y135027D01*
X157991Y135012D01*
X157745Y135003D01*
X157500Y135000D01*
X157255Y135003D01*
X157009Y135012D01*
X156764Y135027D01*
X156520Y135048D01*
X156276Y135075D01*
X156033Y135108D01*
X155790Y135147D01*
X155549Y135192D01*
X155309Y135243D01*
X155070Y135300D01*
X154833Y135362D01*
X154597Y135431D01*
X154363Y135505D01*
X154131Y135585D01*
X153901Y135670D01*
X153673Y135761D01*
X153448Y135858D01*
X153224Y135960D01*
X153004Y136068D01*
X152786Y136181D01*
X152571Y136299D01*
X152359Y136423D01*
X152150Y136551D01*
X151944Y136685D01*
X151742Y136824D01*
X151543Y136968D01*
X151348Y137117D01*
X151156Y137270D01*
X150968Y137428D01*
X150784Y137590D01*
X150605Y137758D01*
X150429Y137929D01*
X150258Y138105D01*
X150090Y138284D01*
X149928Y138468D01*
X149770Y138656D01*
X149617Y138848D01*
X149468Y139043D01*
X149324Y139242D01*
X149185Y139444D01*
X149051Y139650D01*
X148923Y139859D01*
X148799Y140071D01*
X148681Y140286D01*
X148568Y140504D01*
X148460Y140724D01*
X148358Y140948D01*
X148261Y141173D01*
X148170Y141401D01*
X148085Y141631D01*
X148005Y141863D01*
X147931Y142097D01*
X147862Y142333D01*
X147800Y142570D01*
X147743Y142809D01*
X147692Y143049D01*
X147647Y143290D01*
X147608Y143533D01*
X147575Y143776D01*
X147548Y144020D01*
X147527Y144264D01*
X147512Y144509D01*
X147503Y144755D01*
X147500Y145000D01*
M02*
